<?xml version="1.0" encoding="UTF-8" standalone="yes"?>
<!DOCTYPE svg PUBLIC "-//W3C//DTD SVG 1.0//EN" "http://www.w3.org/TR/2001/REC-SVG-20010904/DTD/svg10.dtd">
<svg height="400" width="1500" xmlns="http://www.w3.org/2000/svg" xmlns:svg="http://www.w3.org/2000/svg" xmlns:xlink="http://www.w3.org/1999/xlink">
	<g id="At" style="fill: red; stroke: reg">
		<rect height="4" width="1200" x="20" y="16" />
		<rect height="12" rx="5" ry="5" width="112.281445374589" x="29.781465752643" y="12" />
		<rect height="12" rx="5" ry="5" width="6.35795273921797" x="210.269071820412" y="12" />
		<rect height="12" rx="5" ry="5" width="71.0036598984358" x="304.308083566322" y="12" />
		<rect height="12" rx="5" ry="5" width="19.7389978888336" x="944.641957597346" y="12" />
		<rect height="12" rx="5" ry="5" width="27.4370114361637" x="1086.45364807916" y="12" />
		<rect height="12" rx="5" ry="5" width="52.7612262697565" x="1157.4573079776" y="12" />
	</g>
	<g id="Gr" style="fill: green; stroke: green">
		<rect height="4" width="465.108696538176" x="50" y="116" />
		<rect height="12" rx="5" ry="5" width="72.862138391438" x="59.781465752643" y="112" />
		<rect height="12" rx="5" ry="5" width="6.33838980771269" x="187.419812358882" y="112" />
		<rect height="12" rx="5" ry="5" width="12.7550313414465" x="276.86153520105" y="112" />
		<rect height="12" rx="5" ry="5" width="21.7637612996308" x="319.205500444242" y="112" />
		<rect height="12" rx="5" ry="5" width="25.6665661349353" x="415.650752765302" y="112" />
		<rect height="12" rx="5" ry="5" width="41.1799708186272" x="464.147259966906" y="112" />
	</g>
	<g id="Dt" style="fill: blue; stroke: blue">
		<rect height="4" width="452.960116073394" x="20" y="216" />
		<rect height="12" rx="5" ry="5" width="72.8719198571906" x="29.781465752643" y="212" />
		<rect height="12" rx="5" ry="5" width="8.7739747801208" x="133.601943251196" y="212" />
		<rect height="12" rx="5" ry="5" width="10.8280825881758" x="235.916075023842" y="212" />
		<rect height="12" rx="5" ry="5" width="21.2942509435039" x="277.859000171176" y="212" />
		<rect height="12" rx="5" ry="5" width="21.1964362859775" x="381.268656108118" y="212" />
		<rect height="12" rx="5" ry="5" width="31.5647899837791" x="431.613860336972" y="212" />
	</g>
	<path d="M 29.781465752643 24  L  59.781465752643 112  L  132.643604144081 112  L  142.062911127232 24  z " style="fill-opacity: 0.1; fill-color: orange" />
	<path d="M 59.781465752643 124  L  29.781465752643 212  L  102.653385609834 212  L  132.643604144081 124  z " style="fill-opacity: 0.1; fill-color: orange" />
	<path d="M 210.269071820412 24  L  187.419812358882 112  L  193.758202166595 112  L  216.62702455963 24  z " style="fill-opacity: 0.1; fill-color: orange" />
	<path d="M 187.419812358882 124  L  133.601943251196 212  L  142.375918031317 212  L  193.758202166595 124  z " style="fill-opacity: 0.1; fill-color: orange" />
	<path d="M 304.308083566322 24  L  276.86153520105 112  L  289.616566542496 112  L  375.311743464758 24  z " style="fill-opacity: 0.1; fill-color: orange" />
	<path d="M 276.86153520105 124  L  235.916075023842 212  L  246.744157612018 212  L  289.616566542496 124  z " style="fill-opacity: 0.1; fill-color: orange" />
	<path d="M 944.641957597346 24  L  319.205500444242 112  L  340.969261743872 112  L  964.38095548618 24  z " style="fill-opacity: 0.1; fill-color: orange" />
	<path d="M 319.205500444242 124  L  277.859000171176 212  L  299.15325111468 212  L  340.969261743872 124  z " style="fill-opacity: 0.1; fill-color: orange" />
	<path d="M 1086.45364807916 24  L  415.650752765302 112  L  441.317318900237 112  L  1113.89065951533 24  z " style="fill-opacity: 0.1; fill-color: orange" />
	<path d="M 415.650752765302 124  L  381.268656108118 212  L  402.465092394095 212  L  441.317318900237 124  z " style="fill-opacity: 0.1; fill-color: orange" />
	<path d="M 1157.4573079776 24  L  464.147259966906 112  L  505.327230785533 112  L  1210.21853424736 24  z " style="fill-opacity: 0.1; fill-color: orange" />
	<path d="M 464.147259966906 124  L  431.613860336972 212  L  463.178650320751 212  L  505.327230785533 124  z " style="fill-opacity: 0.1; fill-color: orange" />
	<g id="AtTE" style="fill: gray; fill-opacity: 0.6">
		<rect height="15" width="1.94651168477596" x="1204.92676127518" y="10.5" />
		<rect height="15" width="2.83662506826648" x="1200.86745298783" y="10.5" />
		<rect height="15" width="1.57481598617553" x="1195.97672011151" y="10.5" />
		<rect height="15" width="1.48678279440174" x="1192.77818081039" y="10.5" />
		<rect height="15" width="1.50634572590703" x="1187.02667894784" y="10.5" />
		<rect height="15" width="1.50634572590703" x="1177.06914681165" y="10.5" />
		<rect height="15" width="0.459728890374223" x="1163.79569778531" y="10.5" />
		<rect height="15" width="0.635795273921797" x="1157.98550712824" y="10.5" />
		<rect height="15" width="8.94025969791573" x="1146.18905943056" y="10.5" />
		<rect height="15" width="13.0386938482732" x="1129.58013058257" y="10.5" />
		<rect height="15" width="1.13465002730659" x="1128.0444404594" y="10.5" />
		<rect height="15" width="3.24744662987749" x="1122.6744157612" y="10.5" />
		<rect height="15" width="1.4085310683806" x="1119.13352515875" y="10.5" />
		<rect height="15" width="0.586887945158582" x="1114.99596514538" y="10.5" />
		<rect height="15" width="3.24744662987749" x="1109.62594044718" y="10.5" />
		<rect height="15" width="4.53860010922637" x="1102.96476226963" y="10.5" />
		<rect height="15" width="2.06388927380768" x="1075.11692927185" y="10.5" />
		<rect height="15" width="2.01498194504447" x="1072.5248408474" y="10.5" />
		<rect height="15" width="0.811861657469372" x="1070.75439554617" y="10.5" />
		<rect height="15" width="1.45743839714381" x="1057.07012495823" y="10.5" />
		<rect height="15" width="2.06388927380768" x="1048.96128984928" y="10.5" />
		<rect height="15" width="2.01498194504447" x="1046.36920142483" y="10.5" />
		<rect height="15" width="0.811861657469372" x="1044.59875612361" y="10.5" />
		<rect height="15" width="1.45743839714381" x="1030.9047040699" y="10.5" />
		<rect height="15" width="11.043274834734" x="1016.71179726282" y="10.5" />
		<rect height="15" width="1.00749097252223" x="991.632119073043" y="10.5" />
		<rect height="15" width="7.19915879394527" x="981.919123580669" y="10.5" />
		<rect height="15" width="3.726738451757" x="928.795983078064" y="10.5" />
		<rect height="15" width="5.4091505612116" x="912.950008558783" y="10.5" />
		<rect height="15" width="0.978146575264303" x="911.874047325992" y="10.5" />
		<rect height="15" width="0.64557673967444" x="908.655945093372" y="10.5" />
		<rect height="15" width="16.9219357520725" x="891.694883478289" y="10.5" />
		<rect height="15" width="2.49427376692397" x="879.516958616249" y="10.5" />
		<rect height="15" width="3.24744662987749" x="851.620218289711" y="10.5" />
		<rect height="15" width="7.05243680765563" x="844.518874153292" y="10.5" />
		<rect height="15" width="8.96960409517366" x="690.499914412175" y="10.5" />
		<rect height="15" width="6.83724456109748" x="680.45434908421" y="10.5" />
		<rect height="15" width="1.64328624644403" x="644.654184429537" y="10.5" />
		<rect height="15" width="3.61914232847792" x="640.555750279179" y="10.5" />
		<rect height="15" width="0.136940520537002" x="640.193836046332" y="10.5" />
		<rect height="15" width="15.8068486562711" x="620.670030404056" y="10.5" />
		<rect height="15" width="10.4466054238228" x="610.184299117223" y="10.5" />
		<rect height="15" width="27.4370114361637" x="572.9071331339" y="10.5" />
		<rect height="15" width="14.4863507796643" x="547.436196314018" y="10.5" />
		<rect height="15" width="79.7091644182881" x="451.548487540858" y="10.5" />
		<rect height="15" width="6.74921136932369" x="432.885450884815" y="10.5" />
		<rect height="15" width="0.929239246501088" x="431.819271117777" y="10.5" />
		<rect height="15" width="19.5824944367914" x="403.198702325544" y="10.5" />
		<rect height="15" width="13.1854158345628" x="385.640971299549" y="10.5" />
		<rect height="15" width="1.94651168477596" x="382.64784277924" y="10.5" />
		<rect height="15" width="0.616232342416511" x="299.133688183174" y="10.5" />
		<rect height="15" width="1.44765693139117" x="292.169284567292" y="10.5" />
		<rect height="15" width="5.21352124615874" x="286.887293060865" y="10.5" />
		<rect height="15" width="1.37918667112267" x="240.581834187853" y="10.5" />
		<rect height="15" width="6.03516436938075" x="234.419510763688" y="10.5" />
		<rect height="15" width="0.596669410911225" x="220.627644052461" y="10.5" />
		<rect height="15" width="1.65306771219667" x="218.456158655375" y="10.5" />
		<rect height="15" width="2.23995565735525" x="203.744834163399" y="10.5" />
		<rect height="15" width="4.34297079417351" x="198.570438780251" y="10.5" />
		<rect height="15" width="0.479291821879509" x="196.183761136606" y="10.5" />
		<rect height="15" width="1.69219357520725" x="187.801044986591" y="10.5" />
		<rect height="15" width="0.665139671179726" x="178.851003822923" y="10.5" />
		<rect height="15" width="2.46492936966604" x="162.398578426977" y="10.5" />
		<rect height="15" width="1.14443149305923" x="159.317416714895" y="10.5" />
		<rect height="15" width="1.69219357520725" x="151.081422551169" y="10.5" />
	</g>
	<g id="GrTE" style="fill: gray; fill-opacity: 0.6">
		<rect height="15" width="0.293443972579291" x="53.4039500819198" y="110.5" />
		<rect height="15" width="0.22497371231079" x="56.0645087666387" y="110.5" />
		<rect height="15" width="0.195629315052861" x="79.4813377784661" y="110.5" />
		<rect height="15" width="0.205410780805504" x="96.9314726811813" y="110.5" />
		<rect height="15" width="0.195629315052861" x="105.685884529797" y="110.5" />
		<rect height="15" width="6.00581997212282" x="111.642797173156" y="110.5" />
		<rect height="15" width="0.195629315052861" x="133.484810198808" y="110.5" />
		<rect height="15" width="0.254318109568719" x="134.286890390525" y="110.5" />
		<rect height="15" width="0.195629315052861" x="137.407177965618" y="110.5" />
		<rect height="15" width="0.606450876663868" x="141.437141855707" y="110.5" />
		<rect height="15" width="0.596669410911225" x="142.376162567961" y="110.5" />
		<rect height="15" width="0.244536643816076" x="143.109772499409" y="110.5" />
		<rect height="15" width="1.30093494510152" x="145.692079458107" y="110.5" />
		<rect height="15" width="0.195629315052861" x="147.354928636056" y="110.5" />
		<rect height="15" width="2.60186989020305" x="152.265224443883" y="110.5" />
		<rect height="15" width="23.3483587515589" x="154.876875799839" y="110.5" />
		<rect height="15" width="2.30842591762376" x="178.068731099355" y="110.5" />
		<rect height="15" width="0.694484068437655" x="182.020443263423" y="110.5" />
		<rect height="15" width="0.371695698600435" x="204.185244658912" y="110.5" />
		<rect height="15" width="0.997709506769589" x="205.261205891703" y="110.5" />
		<rect height="15" width="32.3473072439905" x="206.190445138204" y="110.5" />
		<rect height="15" width="12.3246468483302" x="239.525680423211" y="110.5" />
		<rect height="15" width="1.39874960262795" x="251.781857011273" y="110.5" />
		<rect height="15" width="0.430384493116294" x="256.291112723242" y="110.5" />
		<rect height="15" width="7.51216569802985" x="259.382055901077" y="110.5" />
		<rect height="15" width="0.371695698600435" x="270.943748420701" y="110.5" />
		<rect height="15" width="2.68990308197683" x="271.42304024258" y="110.5" />
		<rect height="15" width="0.352132767095149" x="274.631361009447" y="110.5" />
		<rect height="15" width="0.361914232847792" x="291.279415720446" y="110.5" />
		<rect height="15" width="0.205410780805504" x="295.407194268061" y="110.5" />
		<rect height="15" width="0.234755178063433" x="299.515409884171" y="110.5" />
		<rect height="15" width="0.293443972579291" x="304.054009993398" y="110.5" />
		<rect height="15" width="0.498854753384795" x="304.797401390598" y="110.5" />
		<rect height="15" width="0.899894849243159" x="306.000521678173" y="110.5" />
		<rect height="15" width="0.596669410911225" x="307.898126034186" y="110.5" />
		<rect height="15" width="0.518417684890081" x="345.908901948957" y="110.5" />
		<rect height="15" width="0.22497371231079" x="349.410666688403" y="110.5" />
		<rect height="15" width="0.293443972579291" x="355.475175455042" y="110.5" />
		<rect height="15" width="0.264099575321362" x="355.974030208427" y="110.5" />
		<rect height="15" width="1.55525305467024" x="357.783601372666" y="110.5" />
		<rect height="15" width="1.33027934235945" x="360.082245824537" y="110.5" />
		<rect height="15" width="0.860768986232587" x="362.292857084634" y="110.5" />
		<rect height="15" width="0.694484068437655" x="367.917199892404" y="110.5" />
		<rect height="15" width="0.244536643816076" x="397.408319136623" y="110.5" />
		<rect height="15" width="0.440165958868937" x="408.373342245335" y="110.5" />
		<rect height="15" width="0.498854753384795" x="409.654714258932" y="110.5" />
		<rect height="15" width="0.743391397200871" x="412.559809587467" y="110.5" />
		<rect height="15" width="0.606450876663868" x="441.229285708463" y="110.5" />
		<rect height="15" width="0.332569835589863" x="442.070491763191" y="110.5" />
		<rect height="15" width="2.17148539708675" x="448.066530269561" y="110.5" />
		<rect height="15" width="3.23766516412484" x="450.218452735142" y="110.5" />
		<rect height="15" width="2.8855323970297" x="450.697744557022" y="110.5" />
		<rect height="15" width="2.56274402719247" x="454.111476104694" y="110.5" />
		<rect height="15" width="2.91487679428762" x="454.385357145768" y="110.5" />
		<rect height="15" width="2.79749920525591" x="455.040715351195" y="110.5" />
		<rect height="15" width="0.440165958868937" x="459.951011159022" y="110.5" />
		<rect height="15" width="1.09552416429602" x="506.383629086819" y="110.5" />
		<rect height="15" width="2.08345220531297" x="509.699545976965" y="110.5" />
	</g>
	<g id="DtTE" style="fill: gray; fill-opacity: 0.6">
		<rect height="15" width="3.20832076686692" x="25.5558725475012" y="210.5" />
		<rect height="15" width="2.39645910939754" x="62.5885018870078" y="210.5" />
		<rect height="15" width="3.84411604078871" x="73.377458612173" y="210.5" />
		<rect height="15" width="1.72153797246517" x="111.515393581728" y="210.5" />
		<rect height="15" width="3.30613542439335" x="113.589064321289" y="210.5" />
		<rect height="15" width="2.42580350665547" x="119.858983868733" y="210.5" />
		<rect height="15" width="4.34297079417351" x="122.363039101409" y="210.5" />
		<rect height="15" width="2.54318109568719" x="127.429838361278" y="210.5" />
		<rect height="15" width="2.76815480799798" x="142.248758976533" y="210.5" />
		<rect height="15" width="2.36711471213961" x="157.811070988988" y="210.5" />
		<rect height="15" width="1.72153797246517" x="171.348619590646" y="210.5" />
		<rect height="15" width="3.30613542439335" x="173.422290330206" y="210.5" />
		<rect height="15" width="2.42580350665547" x="179.69220987765" y="210.5" />
		<rect height="15" width="4.34297079417351" x="182.196265110327" y="210.5" />
		<rect height="15" width="2.54318109568719" x="187.263064370196" y="210.5" />
		<rect height="15" width="2.76815480799798" x="202.08198498545" y="210.5" />
		<rect height="15" width="8.0697092459305" x="217.77145605269" y="210.5" />
		<rect height="15" width="3.20832076686692" x="229.294022709303" y="210.5" />
		<rect height="15" width="1.38896813687531" x="253.962879337469" y="210.5" />
		<rect height="15" width="3.95171216406779" x="263.069423953179" y="210.5" />
		<rect height="15" width="3.97127509557307" x="302.381134813052" y="210.5" />
		<rect height="15" width="8.42184201302565" x="313.913482935418" y="210.5" />
		<rect height="15" width="1.20312028757509" x="324.65353233182" y="210.5" />
		<rect height="15" width="1.79978969848632" x="337.330311947245" y="210.5" />
		<rect height="15" width="1.48678279440174" x="352.785027836421" y="210.5" />
		<rect height="15" width="3.37460568466185" x="355.729249027967" y="210.5" />
		<rect height="15" width="4.41144105444201" x="396.889656915089" y="210.5" />
		<rect height="15" width="1.09552416429602" x="402.856351024201" y="210.5" />
		<rect height="15" width="3.08116171208256" x="404.255100626829" y="210.5" />
		<rect height="15" width="0.743391397200871" x="428.875049926231" y="210.5" />
		<rect height="15" width="0.459728890374223" x="434.763492309323" y="210.5" />
		<rect height="15" width="1.50634572590703" x="448.036941335659" y="210.5" />
		<rect height="15" width="1.48678279440174" x="453.778661732461" y="210.5" />
		<rect height="15" width="1.48678279440174" x="457.290207937659" y="210.5" />
		<rect height="15" width="1.10530563004866" x="461.867933909896" y="210.5" />
	</g>
	<!-- 
	Generated using the Perl SVG Module V2.52
	by Ronan Oger
	Info: http://www.roitsystems.com/
 -->
</svg>