<?xml version="1.0" encoding="UTF-8" standalone="yes"?>
<!DOCTYPE svg PUBLIC "-//W3C//DTD SVG 1.0//EN" "http://www.w3.org/TR/2001/REC-SVG-20010904/DTD/svg10.dtd">
<svg height="200" width="1500" xmlns="http://www.w3.org/2000/svg" xmlns:svg="http://www.w3.org/2000/svg" xmlns:xlink="http://www.w3.org/1999/xlink">
	<g id="At" style="fill: green; stroke: black">
		<rect height="0" width="1200" x="20" y="200" />
		<rect height="0" rx="5" ry="5" width="9.67812568425662" x="28.7584847821327" y="200" />
		<rect height="0" rx="5" ry="5" width="24.5062404204073" x="134.525947011167" y="200" />
		<rect height="0" rx="5" ry="5" width="39.5971097000219" x="210.374425224436" y="200" />
		<rect height="0" rx="5" ry="5" width="59.3037004598205" x="493.580030654697" y="200" />
		<rect height="0" rx="5" ry="5" width="21.0641559010291" x="1190.17735931684" y="200" />
	</g>
	<g id="Gr" style="fill: red; stroke: black">
		<rect height="0" width="737.587037442523" x="50" y="100" />
		<rect height="0" rx="5" ry="5" width="9.91460477337421" x="58.7584847821327" y="100" />
		<rect height="0" rx="5" ry="5" width="22.1677249835778" x="216.341142982264" y="100" />
		<rect height="0" rx="5" ry="5" width="77.6352091088242" x="277.06371797679" y="100" />
		<rect height="0" rx="5" ry="5" width="59.0059119772279" x="492.87278300854" y="100" />
		<rect height="0" rx="5" ry="5" width="22.1326910444493" x="756.695861615941" y="100" />
	</g>
	<g id="Dt" style="fill: blue; stroke: black">
		<rect height="0" width="893.645719290563" x="20" y="0" />
		<rect height="0" rx="5" ry="5" width="8.24173417998686" x="28.7584847821327" y="0" />
		<rect height="0" rx="5" ry="5" width="23.6829428508868" x="192.638493540618" y="0" />
		<rect height="0" rx="5" ry="5" width="38.9664987957083" x="298.616159404423" y="0" />
		<rect height="0" rx="5" ry="5" width="65.1806437486315" x="546.691482373549" y="0" />
		<rect height="0" rx="5" ry="5" width="22.8246113422378" x="882.062623166192" y="0" />
	</g>
	<path d="M 28.7584847821327 0  L  58.7584847821327 100  L  68.6730895555069 100  L  37.0002189621196 0  z " style="fill: gray; fill-opacity: 0.2" />
	<path d="M 58.7584847821327 100  L  28.7584847821327 200  L  38.4366104663893 200  L  68.6730895555069 100  z " style="fill: gray; fill-opacity: 0.2" />
	<path d="M 192.638493540618 0  L  216.341142982264 100  L  238.508867965842 100  L  216.321436391504 0  z " style="fill: gray; fill-opacity: 0.2" />
	<path d="M 216.341142982264 100  L  134.525947011167 200  L  159.032187431574 200  L  238.508867965842 100  z " style="fill: gray; fill-opacity: 0.2" />
	<path d="M 298.616159404423 0  L  277.06371797679 100  L  354.698927085614 100  L  337.582658200131 0  z " style="fill: gray; fill-opacity: 0.2" />
	<path d="M 277.06371797679 100  L  210.374425224436 200  L  249.971534924458 200  L  354.698927085614 100  z " style="fill: gray; fill-opacity: 0.2" />
	<path d="M 546.691482373549 0  L  492.87278300854 100  L  551.878694985768 100  L  611.872126122181 0  z " style="fill: gray; fill-opacity: 0.2" />
	<path d="M 492.87278300854 100  L  493.580030654697 200  L  552.883731114517 200  L  551.878694985768 100  z " style="fill: gray; fill-opacity: 0.2" />
	<path d="M 882.062623166192 0  L  756.695861615941 100  L  778.82855266039 100  L  904.88723450843 0  z " style="fill: gray; fill-opacity: 0.2" />
	<path d="M 756.695861615941 100  L  1190.17735931684 200  L  1211.24151521787 200  L  778.82855266039 100  z " style="fill: gray; fill-opacity: 0.2" />
	<g id="AtTE" style="fill: #4B0082; fill-opacity: 0.4">
		<rect height="0" width="4.0464199693453" x="1214.76242610028" y="200" />
		<rect height="0" width="1.65535362382308" x="1186.64768994964" y="200" />
		<rect height="0" width="1.05977665863806" x="1184.22158966499" y="200" />
		<rect height="0" width="2.34727392161156" x="1177.3549375958" y="200" />
		<rect height="0" width="1.32253120210204" x="1175.78716881979" y="200" />
		<rect height="0" width="11.6487847602365" x="1163.50777315524" y="200" />
		<rect height="0" width="1.32253120210204" x="1162.00131377272" y="200" />
		<rect height="0" width="1.17363696080578" x="1159.01467046201" y="200" />
		<rect height="0" width="1.97065907597986" x="1156.29078169477" y="200" />
		<rect height="0" width="11.8239544558791" x="1144.42303481498" y="200" />
		<rect height="0" width="6.05211298445369" x="1137.9417560762" y="200" />
		<rect height="0" width="6.55134661703525" x="1131.3728924896" y="200" />
		<rect height="0" width="2.94285088679658" x="1128.37749069411" y="200" />
		<rect height="0" width="11.5436829428509" x="1108.19794175608" y="200" />
		<rect height="0" width="12.1918108167287" x="1095.95358003065" y="200" />
		<rect height="0" width="6.38493540617473" x="1081.37946135319" y="200" />
		<rect height="0" width="0.516750602145829" x="1080.65250711627" y="200" />
		<rect height="0" width="0.770746660827677" x="1079.6102474272" y="200" />
		<rect height="0" width="2.2246551346617" x="1077.31552441428" y="200" />
		<rect height="0" width="3.1355375520035" x="1074.03985110576" y="200" />
		<rect height="0" width="1.40135756514123" x="1070.39632143639" y="200" />
		<rect height="0" width="1.19991241515218" x="1068.4782132691" y="200" />
		<rect height="0" width="1.88307422815853" x="1063.31946573243" y="200" />
		<rect height="0" width="1.57652726078388" x="1061.72542150208" y="200" />
		<rect height="0" width="1.63783665425881" x="1051.67943945697" y="200" />
		<rect height="0" width="3.2406393693891" x="1048.17604554412" y="200" />
		<rect height="0" width="5.74556601707905" x="1038.58550470769" y="200" />
		<rect height="0" width="1.06853514342019" x="1032.80490475148" y="200" />
		<rect height="0" width="10.9743814320123" x="1017.71403547186" y="200" />
		<rect height="0" width="134.863148675279" x="882.807094372674" y="200" />
		<rect height="0" width="19.5226625793738" x="862.653820888986" y="200" />
		<rect height="0" width="11.8940223341362" x="850.050361287497" y="200" />
		<rect height="0" width="1.41011604992336" x="847.484125246332" y="200" />
		<rect height="0" width="4.10772936282023" x="841.992555287935" y="200" />
		<rect height="0" width="18.6555725859426" x="821.340048171666" y="200" />
		<rect height="0" width="4.23910663455222" x="814.666082767681" y="200" />
		<rect height="0" width="3.82745784979199" x="810.821107948325" y="200" />
		<rect height="0" width="0.893365447777535" x="798.436610466389" y="200" />
		<rect height="0" width="1.07729362820232" x="792.796146266696" y="200" />
		<rect height="0" width="5.99080359097876" x="785.693015108386" y="200" />
		<rect height="0" width="4.34420845193782" x="781.199912415152" y="200" />
		<rect height="0" width="12.0341580906503" x="768.832931902781" y="200" />
		<rect height="0" width="0.700678782570615" x="768.097219181082" y="200" />
		<rect height="0" width="5.43026056492227" x="751.876505364572" y="200" />
		<rect height="0" width="3.31946573242829" x="746.586380556164" y="200" />
		<rect height="0" width="2.94285088679658" x="741.839281804248" y="200" />
		<rect height="0" width="10.0810159842347" x="729.472301291877" y="200" />
		<rect height="0" width="110.120429165754" x="615.454346398073" y="200" />
		<rect height="0" width="2.99540179548938" x="605.364571929056" y="200" />
		<rect height="0" width="3.17932997591417" x="592.445806875411" y="200" />
		<rect height="0" width="0.525509086927961" x="591.33347930808" y="200" />
		<rect height="0" width="1.3663236260127" x="585.167506021458" y="200" />
		<rect height="0" width="5.92949419750383" x="579.22049485439" y="200" />
		<rect height="0" width="19.8554850010948" x="557.727173199037" y="200" />
		<rect height="0" width="1.33128968688417" x="554.705495949201" y="200" />
		<rect height="0" width="0.884606962995402" x="527.729362820232" y="200" />
		<rect height="0" width="1.88307422815853" x="490.934968250493" y="200" />
		<rect height="0" width="4.11648784760237" x="486.608276768119" y="200" />
		<rect height="0" width="2.06700240858332" x="479.566455003284" y="200" />
		<rect height="0" width="1.75169695642654" x="476.676155025181" y="200" />
		<rect height="0" width="5.5178454127436" x="469.345303262536" y="200" />
		<rect height="0" width="1.78673089555507" x="467.02430479527" y="200" />
		<rect height="0" width="1.12108605211298" x="452.021020363477" y="200" />
		<rect height="0" width="3.27567330851763" x="445.557258594263" y="200" />
		<rect height="0" width="1.68162907816948" x="443.227501642216" y="200" />
		<rect height="0" width="4.94854390190497" x="428.933654477775" y="200" />
		<rect height="0" width="7.37464418655573" x="417.267352747975" y="200" />
		<rect height="0" width="12.9450405079921" x="403.026056492227" y="200" />
		<rect height="0" width="1.59404423034815" x="401.291876505365" y="200" />
		<rect height="0" width="1.12108605211298" x="396.991460477337" y="200" />
		<rect height="0" width="2.43485876943289" x="393.356689292752" y="200" />
		<rect height="0" width="1.42763301948763" x="389.213925990804" y="200" />
		<rect height="0" width="1.19991241515218" x="387.479746003941" y="200" />
		<rect height="0" width="3.87125027370265" x="380.954674841253" y="200" />
		<rect height="0" width="2.71513028246113" x="375.410553974162" y="200" />
		<rect height="0" width="0.639369389095687" x="368.25487190716" y="200" />
		<rect height="0" width="1.85679877381213" x="366.380556163784" y="200" />
		<rect height="0" width="2.85526603897526" x="355.642653820889" y="200" />
		<rect height="0" width="1.67287059338734" x="351.964090212393" y="200" />
		<rect height="0" width="0.560543026056492" x="348.58331508649" y="200" />
		<rect height="0" width="0.954674841252463" x="347.348368732209" y="200" />
		<rect height="0" width="0.788263630391942" x="331.513028246113" y="200" />
		<rect height="0" width="0.560543026056492" x="329.463542807094" y="200" />
		<rect height="0" width="0.954674841252463" x="328.228596452814" y="200" />
		<rect height="0" width="1.10356908254872" x="306.157214801839" y="200" />
		<rect height="0" width="1.10356908254872" x="288.876724326692" y="200" />
		<rect height="0" width="0.867089993431137" x="284.751477994307" y="200" />
		<rect height="0" width="3.31070724764616" x="275.774031092621" y="200" />
		<rect height="0" width="3.29319027808189" x="268.259251149551" y="200" />
		<rect height="0" width="1.20867089993431" x="265.474052988833" y="200" />
		<rect height="0" width="1.86555725859426" x="261.944383621634" y="200" />
		<rect height="0" width="1.48018392818042" x="258.27457849792" y="200" />
		<rect height="0" width="2.09327786292971" x="243.61287497263" y="200" />
		<rect height="0" width="2.23341361944384" x="239.978103788045" y="200" />
		<rect height="0" width="1.22618786949858" x="231.097000218962" y="200" />
		<rect height="0" width="0.998467265163127" x="205.636084957302" y="200" />
		<rect height="0" width="4.94854390190497" x="199.50514560981" y="200" />
		<rect height="0" width="0.665644843442085" x="197.403109262098" y="200" />
		<rect height="0" width="5.64922268447559" x="189.835778410335" y="200" />
		<rect height="0" width="7.55857236698051" x="178.292095467484" y="200" />
		<rect height="0" width="1.42763301948763" x="176.584190934968" y="200" />
		<rect height="0" width="1.02474271950953" x="172.89686884169" y="200" />
		<rect height="0" width="5.38646814101161" x="164.3135537552" y="200" />
		<rect height="0" width="2.43485876943289" x="161.607181957521" y="200" />
		<rect height="0" width="1.38384059557697" x="159.986862272827" y="200" />
		<rect height="0" width="0.691920297788483" x="132.432669148237" y="200" />
		<rect height="0" width="2.25968907379023" x="130.094153711408" y="200" />
		<rect height="0" width="4.01138603021677" x="125.312021020363" y="200" />
		<rect height="0" width="2.98664331070725" x="121.449529231443" y="200" />
		<rect height="0" width="4.79089117582658" x="115.616378366543" y="200" />
		<rect height="0" width="0.4554412086709" x="114.915699583972" y="200" />
		<rect height="0" width="0.902123932559667" x="112.901248084081" y="200" />
		<rect height="0" width="2.36479089117583" x="110.378804466827" y="200" />
		<rect height="0" width="3.2406393693891" x="106.752791767024" y="200" />
		<rect height="0" width="2.03196846945478" x="101.918108167287" y="200" />
		<rect height="0" width="1.55025180643749" x="99.2467703087366" y="200" />
		<rect height="0" width="3.92380118239545" x="95.1653164002628" y="200" />
		<rect height="0" width="1.73417998686227" x="90.9612437048391" y="200" />
		<rect height="0" width="12.0516750602146" x="76.1156119991242" y="200" />
		<rect height="0" width="3.50339391285308" x="69.3540617473177" y="200" />
		<rect height="0" width="0.68316181300635" x="68.6358659951828" y="200" />
		<rect height="0" width="1.26998029340924" x="61.7692139259908" y="200" />
		<rect height="0" width="1.32253120210204" x="58.6949857674622" y="200" />
		<rect height="0" width="0.630610904313554" x="50.6109043135538" y="200" />
		<rect height="0" width="5.0361287497263" x="39.6978322750164" y="200" />
		<rect height="0" width="1.55025180643749" x="25.6229472301292" y="200" />
	</g>
	<g id="GrTE" style="fill: #4B0082; fill-opacity: 0.4">
		<rect height="0" width="0.262754543463981" x="53.3720166411211" y="100" />
		<rect height="0" width="0.210203634771185" x="54.9397854171228" y="100" />
		<rect height="0" width="0.525509086927961" x="55.7105320779505" y="100" />
		<rect height="0" width="0.201445149989052" x="67.9986862272827" y="100" />
		<rect height="0" width="4.58944602583753" x="69.207357127217" y="100" />
		<rect height="0" width="4.9573023866871" x="82.8968688416904" y="100" />
		<rect height="0" width="12.0954674841252" x="87.7928618349026" y="100" />
		<rect height="0" width="0.315305452156777" x="100.045982045106" y="100" />
		<rect height="0" width="0.175169695642654" x="100.483906284213" y="100" />
		<rect height="0" width="1.50645938252682" x="109.38252682286" y="100" />
		<rect height="0" width="1.33128968688417" x="109.715349244581" y="100" />
		<rect height="0" width="2.69761331289687" x="113.455222246551" y="100" />
		<rect height="0" width="4.84344208451938" x="116.109043135538" y="100" />
		<rect height="0" width="0.218962119553317" x="120.961243704839" y="100" />
		<rect height="0" width="0.770746660827677" x="121.188964309175" y="100" />
		<rect height="0" width="0.262754543463981" x="121.968469454784" y="100" />
		<rect height="0" width="0.140135756514123" x="122.23998248303" y="100" />
		<rect height="0" width="1.43639150426976" x="129.807313334793" y="100" />
		<rect height="0" width="1.73417998686227" x="130" y="100" />
		<rect height="0" width="1.26122180862711" x="137.488504488723" y="100" />
		<rect height="0" width="2.11079483249398" x="139.502955988614" y="100" />
		<rect height="0" width="0.253996058681848" x="141.62250930589" y="100" />
		<rect height="0" width="0.367856360849573" x="142.638493540618" y="100" />
		<rect height="0" width="0.875848478213269" x="143.190278081892" y="100" />
		<rect height="0" width="0.560543026056492" x="145.336106853514" y="100" />
		<rect height="0" width="0.166411210860521" x="145.914166849135" y="100" />
		<rect height="0" width="1.7692139259908" x="147.814758046858" y="100" />
		<rect height="0" width="3.66104663893147" x="149.531421064156" y="100" />
		<rect height="0" width="1.10356908254872" x="152.220275892271" y="100" />
		<rect height="0" width="0.183928180424787" x="153.73549375958" y="100" />
		<rect height="0" width="2.56623604116488" x="153.963214363915" y="100" />
		<rect height="0" width="1.57652726078388" x="156.354280709437" y="100" />
		<rect height="0" width="0.691920297788483" x="161.635647033063" y="100" />
		<rect height="0" width="2.14582877162251" x="164.911320341581" y="100" />
		<rect height="0" width="1.29625574775564" x="167.188526384935" y="100" />
		<rect height="0" width="1.56776877600175" x="168.511057587037" y="100" />
		<rect height="0" width="1.63783665425881" x="168.607400919641" y="100" />
		<rect height="0" width="0.578059995620758" x="170.867089993431" y="100" />
		<rect height="0" width="1.65535362382308" x="171.60280271513" y="100" />
		<rect height="0" width="1.09481059776659" x="171.777972410773" y="100" />
		<rect height="0" width="0.420407269542369" x="177.611123275673" y="100" />
		<rect height="0" width="0.972191810816729" x="182.007882636304" y="100" />
		<rect height="0" width="5.28136632362601" x="183.023866871031" y="100" />
		<rect height="0" width="1.42763301948763" x="188.042478651193" y="100" />
		<rect height="0" width="2.33851543682943" x="189.767900153274" y="100" />
		<rect height="0" width="0.315305452156777" x="193.604116487848" y="100" />
		<rect height="0" width="2.7589227063718" x="195.714911320342" y="100" />
		<rect height="0" width="1.56776877600175" x="198.482592511496" y="100" />
		<rect height="0" width="0.420407269542369" x="201.17144733961" y="100" />
		<rect height="0" width="1.58528574556602" x="202.493978541712" y="100" />
		<rect height="0" width="1.22618786949858" x="204.850010948106" y="100" />
		<rect height="0" width="0.201445149989052" x="209.719728486972" y="100" />
		<rect height="0" width="0.183928180424787" x="209.929932121743" y="100" />
		<rect height="0" width="1.58528574556602" x="210.12261878695" y="100" />
		<rect height="0" width="0.753229691263412" x="211.856798773812" y="100" />
		<rect height="0" width="0.297788482592512" x="215.290124808408" y="100" />
		<rect height="0" width="1.55901029121962" x="239.410991898402" y="100" />
		<rect height="0" width="1.32253120210204" x="239.516093715787" y="100" />
		<rect height="0" width="0.201445149989052" x="246.119991241515" y="100" />
		<rect height="0" width="0.350339391285308" x="255.859426319247" y="100" />
		<rect height="0" width="0.341580906503175" x="256.384935406175" y="100" />
		<rect height="0" width="0.332822421721042" x="257.14692358222" y="100" />
		<rect height="0" width="0.297788482592512" x="257.567330851763" y="100" />
		<rect height="0" width="0.429165754324502" x="258.04904751478" y="100" />
		<rect height="0" width="2.81147361506459" x="258.58331508649" y="100" />
		<rect height="0" width="2.34727392161156" x="258.627107510401" y="100" />
		<rect height="0" width="0.989708780380994" x="261.508649003722" y="100" />
		<rect height="0" width="0.32406393693891" x="265.336106853514" y="100" />
		<rect height="0" width="1.17363696080578" x="266.071819575214" y="100" />
		<rect height="0" width="1.67287059338734" x="267.298007444712" y="100" />
		<rect height="0" width="2.36479089117583" x="267.82351653164" y="100" />
		<rect height="0" width="0.656886358659952" x="270.959054083644" y="100" />
		<rect height="0" width="0.376614845631706" x="272.281585285746" y="100" />
		<rect height="0" width="0.490475147799431" x="274.339829209547" y="100" />
		<rect height="0" width="1.3400481716663" x="275.119334355157" y="100" />
		<rect height="0" width="0.350339391285308" x="276.494416465951" y="100" />
		<rect height="0" width="0.22772060433545" x="277.466608276768" y="100" />
		<rect height="0" width="2.04948543901905" x="309.855485001095" y="100" />
		<rect height="0" width="2.52244361725422" x="317.212612218086" y="100" />
		<rect height="0" width="2.54871907160061" x="317.799430698489" y="100" />
		<rect height="0" width="1.03350120429166" x="321.696956426538" y="100" />
		<rect height="0" width="1.55901029121962" x="323.781475804686" y="100" />
		<rect height="0" width="0.875848478213269" x="325.944821545873" y="100" />
		<rect height="0" width="0.201445149989052" x="327.757827895774" y="100" />
		<rect height="0" width="0.289029997810379" x="328.659951828334" y="100" />
		<rect height="0" width="0.4554412086709" x="329.273045763083" y="100" />
		<rect height="0" width="0.35909787606744" x="332.881541493322" y="100" />
		<rect height="0" width="0.175169695642654" x="333.415809065032" y="100" />
		<rect height="0" width="0.175169695642654" x="339.432888110357" y="100" />
		<rect height="0" width="3.43332603459602" x="341.228377490694" y="100" />
		<rect height="0" width="0.192686665206919" x="347.236698051237" y="100" />
		<rect height="0" width="0.411648784760237" x="348.313991679439" y="100" />
		<rect height="0" width="0.569301510838625" x="349.321217429385" y="100" />
		<rect height="0" width="0.218962119553317" x="351.782351653164" y="100" />
		<rect height="0" width="0.481716663017298" x="359.253339172323" y="100" />
		<rect height="0" width="2.2246551346617" x="360.908692796146" y="100" />
		<rect height="0" width="1.41011604992336" x="361.837092183052" y="100" />
		<rect height="0" width="0.32406393693891" x="363.26472520254" y="100" />
		<rect height="0" width="1.37508211079483" x="365.025180643749" y="100" />
		<rect height="0" width="2.61002846507554" x="365.419312458945" y="100" />
		<rect height="0" width="1.04225968907379" x="367.171009415371" y="100" />
		<rect height="0" width="0.464199693453033" x="371.497700897745" y="100" />
		<rect height="0" width="0.919640902123933" x="377.400919640902" y="100" />
		<rect height="0" width="1.55025180643749" x="377.506021458288" y="100" />
		<rect height="0" width="13.8471644405518" x="381.289686884169" y="100" />
		<rect height="0" width="2.96912634114298" x="395.688635865995" y="100" />
		<rect height="0" width="1.60280271513028" x="397.30895555069" y="100" />
		<rect height="0" width="18.7957083424568" x="407.162250930589" y="100" />
		<rect height="0" width="7.47974600394132" x="427.236698051237" y="100" />
		<rect height="0" width="5.74556601707905" x="443.772717319904" y="100" />
		<rect height="0" width="0.22772060433545" x="450.928399386906" y="100" />
		<rect height="0" width="1.42763301948763" x="452.846507554193" y="100" />
		<rect height="0" width="0.32406393693891" x="455.071162688855" y="100" />
		<rect height="0" width="1.35756514123057" x="456.630172980075" y="100" />
		<rect height="0" width="0.919640902123933" x="458.005255090869" y="100" />
		<rect height="0" width="0.919640902123933" x="460.510181738559" y="100" />
		<rect height="0" width="1.69914604773374" x="462.708561418875" y="100" />
		<rect height="0" width="1.09481059776659" x="465.703963214364" y="100" />
		<rect height="0" width="0.192686665206919" x="467.087803809941" y="100" />
		<rect height="0" width="1.84804028903" x="468.007444712065" y="100" />
		<rect height="0" width="5.45653601926867" x="470.345960148894" y="100" />
		<rect height="0" width="4.71206481278739" x="470.871469235822" y="100" />
		<rect height="0" width="1.3663236260127" x="478.395007663674" y="100" />
		<rect height="0" width="0.499233632581563" x="479.910225530983" y="100" />
		<rect height="0" width="2.07576089336545" x="480.532077950515" y="100" />
		<rect height="0" width="1.96190059119772" x="481.259032187432" y="100" />
		<rect height="0" width="0.560543026056492" x="483.544996715568" y="100" />
		<rect height="0" width="1.13860302167725" x="484.219400043792" y="100" />
		<rect height="0" width="0.753229691263412" x="486.023647908912" y="100" />
		<rect height="0" width="2.41734179986862" x="487.460039413182" y="100" />
		<rect height="0" width="1.58528574556602" x="490.035033939129" y="100" />
		<rect height="0" width="0.289029997810379" x="492.802715130283" y="100" />
		<rect height="0" width="0.183928180424787" x="523.115830961244" y="100" />
		<rect height="0" width="0.35909787606744" x="551.204291657543" y="100" />
		<rect height="0" width="0.306546967374644" x="555.697394350777" y="100" />
		<rect height="0" width="3.01291876505365" x="556.923582220276" y="100" />
		<rect height="0" width="0.262754543463981" x="559.945259470112" y="100" />
		<rect height="0" width="0.902123932559667" x="560.216772498358" y="100" />
		<rect height="0" width="0.604335449967156" x="564.569739435078" y="100" />
		<rect height="0" width="1.07729362820232" x="567.722793956646" y="100" />
		<rect height="0" width="0.315305452156777" x="569.211736369608" y="100" />
		<rect height="0" width="0.832056054302606" x="569.886139697832" y="100" />
		<rect height="0" width="25.3908473834027" x="583.663236260127" y="100" />
		<rect height="0" width="14.8193562513685" x="596.739654039851" y="100" />
		<rect height="0" width="9.24020144514999" x="624.486533829648" y="100" />
		<rect height="0" width="14.3989489818261" x="627.753448653383" y="100" />
		<rect height="0" width="1.84804028903" x="640.549594920079" y="100" />
		<rect height="0" width="2.03196846945478" x="642.388876724327" y="100" />
		<rect height="0" width="1.98817604554412" x="647.880446682724" y="100" />
		<rect height="0" width="0.569301510838625" x="651.19115393037" y="100" />
		<rect height="0" width="2.05824392380118" x="660.037223560324" y="100" />
		<rect height="0" width="1.57652726078388" x="664.486533829648" y="100" />
		<rect height="0" width="0.394131815195971" x="666.352091088242" y="100" />
		<rect height="0" width="1.72542150208014" x="677.755638274579" y="100" />
		<rect height="0" width="1.58528574556602" x="680.129187650537" y="100" />
		<rect height="0" width="1.81300634990147" x="684.035471863368" y="100" />
		<rect height="0" width="0.385373330413838" x="687.223560324064" y="100" />
		<rect height="0" width="0.271513028246113" x="688.239544558791" y="100" />
		<rect height="0" width="0.376614845631706" x="691.664112108605" y="100" />
		<rect height="0" width="0.315305452156777" x="694.326691482374" y="100" />
		<rect height="0" width="0.507992117363696" x="696.708999343114" y="100" />
		<rect height="0" width="0.201445149989052" x="703.312896868842" y="100" />
		<rect height="0" width="7.87387781913729" x="704.880665644844" y="100" />
		<rect height="0" width="8.03153054521568" x="709.592730457631" y="100" />
		<rect height="0" width="4.97481935625137" x="713.472739216116" y="100" />
		<rect height="0" width="3.47711845850668" x="721.399167943946" y="100" />
		<rect height="0" width="1.24370483906284" x="727.687760017517" y="100" />
		<rect height="0" width="5.98204510619663" x="729.17670243048" y="100" />
		<rect height="0" width="7.48850448872345" x="735.447777534487" y="100" />
		<rect height="0" width="2.28596452813663" x="743.251587475367" y="100" />
		<rect height="0" width="0.376614845631706" x="749.058462885921" y="100" />
		<rect height="0" width="1.37508211079483" x="749.67155682067" y="100" />
		<rect height="0" width="0.183928180424787" x="780.659075979856" y="100" />
		<rect height="0" width="5.0361287497263" x="781.289686884169" y="100" />
	</g>
	<g id="DtTE" style="fill: #4B0082; fill-opacity: 0.4">
		<rect height="0" width="1.3925990803591" x="23.8099408802277" y="0" />
		<rect height="0" width="0.9108824173418" x="25.5353623823079" y="0" />
		<rect height="0" width="4.59820451061966" x="38.7519159185461" y="0" />
		<rect height="0" width="0.648127873877819" x="49.1482373549376" y="0" />
		<rect height="0" width="1.02474271950953" x="57.2585942631925" y="0" />
		<rect height="0" width="1.02474271950953" x="67.1644405517846" y="0" />
		<rect height="0" width="1.21742938471644" x="70.2386687103131" y="0" />
		<rect height="0" width="1.15611999124152" x="77.8147580468579" y="0" />
		<rect height="0" width="3.6435296693672" x="79.2248740967813" y="0" />
		<rect height="0" width="11.0970002189621" x="87.5541931245895" y="0" />
		<rect height="0" width="1.90059119772279" x="101.471425443398" y="0" />
		<rect height="0" width="0.4554412086709" x="105.237573899715" y="0" />
		<rect height="0" width="3.52966936719947" x="105.763082986643" y="0" />
		<rect height="0" width="1.09481059776659" x="109.546748412525" y="0" />
		<rect height="0" width="1.89183271294066" x="111.74512809284" y="0" />
		<rect height="0" width="2.77643967593606" x="116.255747755638" y="0" />
		<rect height="0" width="2.14582877162251" x="119.42631924677" y="0" />
		<rect height="0" width="0.902123932559667" x="121.992555287935" y="0" />
		<rect height="0" width="0.446682723888767" x="124.02452375739" y="0" />
		<rect height="0" width="4.51937814758047" x="124.751477994307" y="0" />
		<rect height="0" width="0.919640902123933" x="129.305890081016" y="0" />
		<rect height="0" width="2.40858331508649" x="130.803590978761" y="0" />
		<rect height="0" width="2.08451937814758" x="133.825268228596" y="0" />
		<rect height="0" width="2.08451937814758" x="137.407488504489" y="0" />
		<rect height="0" width="1.3663236260127" x="139.518283336983" y="0" />
		<rect height="0" width="1.28749726297351" x="142.075760893365" y="0" />
		<rect height="0" width="1.61156119991242" x="143.424567549814" y="0" />
		<rect height="0" width="3.6435296693672" x="145.876943288811" y="0" />
		<rect height="0" width="2.26844755857237" x="149.949638712503" y="0" />
		<rect height="0" width="0.691920297788483" x="152.296912634114" y="0" />
		<rect height="0" width="0.691920297788483" x="160.477337420626" y="0" />
		<rect height="0" width="2.26844755857237" x="161.248084081454" y="0" />
		<rect height="0" width="3.6435296693672" x="163.945697394351" y="0" />
		<rect height="0" width="1.61156119991242" x="168.430041602803" y="0" />
		<rect height="0" width="1.28749726297351" x="170.10291219619" y="0" />
		<rect height="0" width="1.3663236260127" x="172.581563389534" y="0" />
		<rect height="0" width="3.2143639150427" x="173.974162469893" y="0" />
		<rect height="0" width="1.3663236260127" x="177.214801839282" y="0" />
		<rect height="0" width="1.28749726297351" x="179.772279395665" y="0" />
		<rect height="0" width="1.61156119991242" x="181.121086052113" y="0" />
		<rect height="0" width="3.6435296693672" x="183.57346179111" y="0" />
		<rect height="0" width="2.98664331070725" x="187.646157214802" y="0" />
		<rect height="0" width="7.42719509524852" x="217.61769213926" y="0" />
		<rect height="0" width="5.71929056273265" x="226.262316619225" y="0" />
		<rect height="0" width="1.63783665425881" x="236.38712502737" y="0" />
		<rect height="0" width="7.42719509524852" x="240.407269542369" y="0" />
		<rect height="0" width="5.71929056273265" x="249.051894022334" y="0" />
		<rect height="0" width="3.38953361068535" x="259.17670243048" y="0" />
		<rect height="0" width="9.82701992555288" x="262.741405736808" y="0" />
		<rect height="0" width="1.00722574994526" x="272.603459601489" y="0" />
		<rect height="0" width="1.24370483906284" x="274.37267352748" y="0" />
		<rect height="0" width="2.38230786074009" x="279.601488942413" y="0" />
		<rect height="0" width="8.99496387125028" x="282.325377709656" y="0" />
		<rect height="0" width="1.88307422815853" x="291.66192248741" y="0" />
		<rect height="0" width="1.22618786949858" x="318.103788044668" y="0" />
		<rect height="0" width="2.45237573899715" x="326.984891613751" y="0" />
		<rect height="0" width="1.92686665206919" x="331.00503612875" y="0" />
		<rect height="0" width="1.28749726297351" x="345.00985329538" y="0" />
		<rect height="0" width="1.32253120210204" x="348.33807751259" y="0" />
		<rect height="0" width="1.12984453689512" x="351.981607181958" y="0" />
		<rect height="0" width="3.1880884606963" x="354.924458068754" y="0" />
		<rect height="0" width="3.78366542588132" x="362.290343770528" y="0" />
		<rect height="0" width="1.48018392818042" x="381.138603021677" y="0" />
		<rect height="0" width="0.578059995620758" x="382.864024523757" y="0" />
		<rect height="0" width="1.91810816728706" x="385.929494197504" y="0" />
		<rect height="0" width="3.23188088460696" x="389.494197503832" y="0" />
		<rect height="0" width="0.639369389095687" x="402.036347711846" y="0" />
		<rect height="0" width="1.14736150645938" x="409.577403109262" y="0" />
		<rect height="0" width="3.43332603459602" x="415.64703306328" y="0" />
		<rect height="0" width="1.3925990803591" x="424.300416028027" y="0" />
		<rect height="0" width="3.43332603459602" x="430.615283555945" y="0" />
		<rect height="0" width="0.875848478213269" x="436.693671994745" y="0" />
		<rect height="0" width="7.85636084957302" x="437.65710532078" y="0" />
		<rect height="0" width="1.84804028903" x="446.809721918108" y="0" />
		<rect height="0" width="1.55901029121962" x="451.162688854828" y="0" />
		<rect height="0" width="0.753229691263412" x="452.888110356908" y="0" />
		<rect height="0" width="10.825487190716" x="454.771184585067" y="0" />
		<rect height="0" width="7.60236479089118" x="466.919202977885" y="0" />
		<rect height="0" width="7.60236479089118" x="483.07860740092" y="0" />
		<rect height="0" width="1.62031968469455" x="499.859864243486" y="0" />
		<rect height="0" width="3.38077512590322" x="502.13707028684" y="0" />
		<rect height="0" width="1.84804028903" x="508.767243266915" y="0" />
		<rect height="0" width="1.83052331946573" x="523.936938909569" y="0" />
		<rect height="0" width="5.55287935187213" x="526.275454346398" y="0" />
		<rect height="0" width="0.980950295598862" x="532.423910663455" y="0" />
		<rect height="0" width="1.7692139259908" x="533.641340048172" y="0" />
		<rect height="0" width="2.05824392380118" x="536.566673965404" y="0" />
		<rect height="0" width="1.71666301729801" x="542.005693015108" y="0" />
		<rect height="0" width="2.42610028465076" x="543.783665425881" y="0" />
		<rect height="0" width="1.48894241296256" x="546.3236260127" y="0" />
		<rect height="0" width="0.867089993431137" x="588.986205386468" y="0" />
		<rect height="0" width="1.33128968688417" x="623.722356032407" y="0" />
		<rect height="0" width="5.18502299102255" x="626.069629954018" y="0" />
		<rect height="0" width="1.90059119772279" x="635.397416246989" y="0" />
		<rect height="0" width="1.95314210641559" x="637.884825925115" y="0" />
		<rect height="0" width="0.656886358659952" x="639.873001970659" y="0" />
		<rect height="0" width="10.6678344646376" x="654.105539741625" y="0" />
		<rect height="0" width="3.07422815852857" x="666.218524195314" y="0" />
		<rect height="0" width="7.04182176483469" x="671.62250930589" y="0" />
		<rect height="0" width="3.07422815852857" x="680.109481059777" y="0" />
		<rect height="0" width="10.5802496168163" x="685.031749507335" y="0" />
		<rect height="0" width="0.700678782570615" x="707.733742062623" y="0" />
		<rect height="0" width="11.9991241515218" x="708.495730238669" y="0" />
		<rect height="0" width="4.44055178454127" x="720.661265601051" y="0" />
		<rect height="0" width="5.95576965185023" x="725.250711626889" y="0" />
		<rect height="0" width="1.8743157433764" x="732.003503393913" y="0" />
		<rect height="0" width="2.31223998248303" x="741.620319684695" y="0" />
		<rect height="0" width="2.05824392380118" x="744.195314210642" y="0" />
		<rect height="0" width="2.2509305890081" x="746.271075104007" y="0" />
		<rect height="0" width="1.7954893803372" x="748.609590540837" y="0" />
		<rect height="0" width="0.81453908473834" x="762.272826800964" y="0" />
		<rect height="0" width="1.40135756514123" x="764.059557696519" y="0" />
		<rect height="0" width="3.20560543026057" x="767.983358878914" y="0" />
		<rect height="0" width="2.07576089336545" x="771.469235822203" y="0" />
		<rect height="0" width="0.919640902123933" x="773.571272169915" y="0" />
		<rect height="0" width="0.560543026056492" x="774.683599737246" y="0" />
		<rect height="0" width="6.41121086052113" x="775.384278519816" y="0" />
		<rect height="0" width="14.7405298883293" x="790.361287497263" y="0" />
		<rect height="0" width="4.30917451280928" x="805.855047076856" y="0" />
		<rect height="0" width="2.76768119115393" x="810.34814977009" y="0" />
		<rect height="0" width="14.7405298883293" x="816.768119115393" y="0" />
		<rect height="0" width="4.30917451280928" x="832.261878694986" y="0" />
		<rect height="0" width="11.8940223341362" x="836.75498138822" y="0" />
		<rect height="0" width="1.32253120210204" x="849.27961462667" y="0" />
		<rect height="0" width="2.32099846726516" x="850.847383402671" y="0" />
		<rect height="0" width="1.21742938471644" x="857.547624261003" y="0" />
		<rect height="0" width="0.674403328224217" x="867.129406612656" y="0" />
		<rect height="0" width="2.34727392161156" x="868.04904751478" y="0" />
		<rect height="0" width="1.21742938471644" x="874.758046857894" y="0" />
	</g>
	<!-- 
	Generated using the Perl SVG Module V2.59
	by Ronan Oger
	Info: http://www.roitsystems.com/
 -->
</svg>