<?xml version="1.0" encoding="UTF-8" standalone="yes"?>
<!DOCTYPE svg PUBLIC "-//W3C//DTD SVG 1.0//EN" "http://www.w3.org/TR/2001/REC-SVG-20010904/DTD/svg10.dtd">
<svg height="340" width="700" xmlns="http://www.w3.org/2000/svg" xmlns:xlink="http://www.w3.org/1999/xlink">
	<rect height="340" rx="0" ry="0" style="fill: white; stroke: white" width="700" x="0" y="0" />	<text font-family="Arial" font-size="24" style="fill:rgb(0,0,0)" x="135.5" y="40">Distribution of LN-3-3 Total Tags
	</text>
	<g id="pieChart" transform="translate(120,200)">
		<path d="M 110,0
				A 110, 110 0 0 0 109.818452157888,-6.31724351640595
				L 0,0
				z" style="fill:#7FFF00;" transform="rotate(-0)" />
		<path d="M 110,0
				A 110, 110 0 0 0 110,0
				L 0,0
				z" style="fill:#DC143C;" transform="rotate(-3.29227863046045)" />
		<path d="M 110,0
				A 110, 110 0 1 0 109.818452112533,6.31724430485699
				L 0,0
				z" style="fill:#00FFFF;" transform="rotate(-3.29227863046045)" />
	</g>	<text font-family="Arial" font-size="20" style="fill:rgb(0,0,0)" x="260" y="100">Tag Classification
	</text>
	<g id="legendGroup_Tags Containing N" style="font-size:20;fill:#000000" transform="translate(260,120)">
		<rect height="15" style="fill:#7FFF00;" width="15" />		<text transform="translate(25, 12)">Tags Containing N (34857, 0.91%)
		</text>
	</g>
	<g id="legendGroup_Adaptors" style="font-size:20;fill:#000000" transform="translate(260,140)">
		<rect height="15" style="fill:#DC143C;" width="15" />		<text transform="translate(25, 12)">Only adaptors (0, 0.00%)
		</text>
	</g>
	<g id="legendGroup_Copy Number >= 1" style="font-size:20;fill:#000000" transform="translate(260,160)">
		<rect height="15" style="fill:#00FFFF;" width="15" />		<text transform="translate(25, 12)">Copy Number &gt;= 1 (3776643, 99.09%)
		</text>
	</g><!-- 
	Generated using the Perl SVG Module V2.36
	by Ronan Oger
	Info: http://www.roitsystems.com/
 -->
</svg>